<?xml version="1.0" encoding="iso-8859-1"?>
<!-- Generator: Adobe Illustrator 18.0.0, SVG Export Plug-In . SVG Version: 6.00 Build 0)  -->
<!DOCTYPE svg PUBLIC "-//W3C//DTD SVG 1.1//EN" "http://www.w3.org/Graphics/SVG/1.1/DTD/svg11.dtd">
<svg version="1.1" id="Capa_1" xmlns="http://www.w3.org/2000/svg" xmlns:xlink="http://www.w3.org/1999/xlink" x="0px" y="0px"
	 viewBox="0 0 448.479 448.479" style="enable-background:new 0 0 448.479 448.479; fill: #484848" xml:space="preserve">
<path d="M440.979,420.372c-9.953,0-15.276,3.438-19.554,6.2c-3.543,2.289-5.884,3.8-11.415,3.8s-7.872-1.512-11.415-3.8
	c-4.277-2.762-9.6-6.2-19.553-6.2s-15.275,3.438-19.552,6.2c-3.543,2.289-5.884,3.8-11.413,3.8s-7.87-1.512-11.413-3.8
	c-2.866-1.851-6.21-4.001-11.095-5.221l-5.189-31.09c-0.604-3.615-3.731-6.265-7.397-6.265h-13.849l-11.05-212.529h7.485
	c4.143,0,7.5-3.358,7.5-7.5v-41.998c0-4.142-3.357-7.5-7.5-7.5h-15.36V87.967c0-27.643-20.597-50.552-47.248-54.221V10.607
	c0-4.142-3.357-7.5-7.5-7.5c-4.142,0-7.5,3.358-7.5,7.5v23.139c-26.65,3.669-47.248,26.578-47.248,54.221v26.501h-15.361
	c-4.142,0-7.5,3.358-7.5,7.5v41.998c0,4.142,3.358,7.5,7.5,7.5h7.49l-11.059,212.529h-16.29c-3.667,0-6.795,2.651-7.398,6.268
	l-5.178,31.08c-4.901,1.219-8.252,3.374-11.123,5.229c-3.542,2.288-5.883,3.8-11.411,3.8s-7.869-1.512-11.411-3.8
	c-4.276-2.762-9.598-6.2-19.55-6.2s-15.273,3.438-19.55,6.2c-3.542,2.288-5.882,3.8-11.41,3.8s-7.869-1.512-11.411-3.8
	c-4.276-2.762-9.598-6.2-19.55-6.2c-4.142,0-7.5,3.358-7.5,7.5s3.358,7.5,7.5,7.5c5.528,0,7.869,1.512,11.411,3.8
	c4.276,2.762,9.598,6.2,19.55,6.2c9.952,0,15.273-3.438,19.55-6.2c3.542-2.288,5.882-3.8,11.41-3.8s7.868,1.512,11.41,3.8
	c4.276,2.762,9.598,6.2,19.55,6.2s15.274-3.438,19.55-6.2c3.542-2.288,5.882-3.8,11.411-3.8c5.529,0,7.87,1.512,11.412,3.8
	c4.276,2.763,9.598,6.2,19.55,6.2c9.953,0,15.275-3.438,19.551-6.2c3.542-2.288,5.883-3.8,11.412-3.8
	c5.527,0,7.867,1.512,11.409,3.8c4.276,2.762,9.598,6.2,19.549,6.2c9.951,0,15.273-3.438,19.549-6.2
	c3.542-2.288,5.882-3.8,11.41-3.8c5.529,0,7.87,1.512,11.413,3.8c4.276,2.762,9.599,6.2,19.551,6.2s15.274-3.438,19.551-6.2
	c3.543-2.288,5.883-3.8,11.412-3.8s7.87,1.512,11.413,3.8c4.276,2.762,9.599,6.2,19.552,6.2s15.275-3.438,19.552-6.2
	c3.543-2.289,5.884-3.8,11.413-3.8c5.53,0,7.871,1.512,11.414,3.8c4.277,2.762,9.6,6.2,19.554,6.2c9.953,0,15.276-3.438,19.553-6.2
	c3.544-2.289,5.885-3.8,11.416-3.8c4.143,0,7.5-3.358,7.5-7.5S445.121,420.372,440.979,420.372z M175.788,211.339l97.59-33.81
	l1.522,29.275l-100.691,34.88L175.788,211.339z M173.368,257.85l102.342-35.452l1.522,29.265l-105.442,36.53L173.368,257.85z
	 M170.949,304.359l107.094-37.102l1.522,29.274l-110.194,38.162L170.949,304.359z M168.53,350.859l111.846-38.735l1.522,29.27
	l-114.947,39.818L168.53,350.859z M282.708,356.989l1.404,27.007h-79.366L282.708,356.989z M238.96,80.55v33.919h-27V80.55H238.96z
	 M253.96,80.55h10.543c0.456,2.405,0.705,4.882,0.705,7.417v26.501H253.96V80.55z M225.46,48.22c13.606,0,25.633,6.875,32.801,17.33
	h-65.602C199.827,55.095,211.854,48.22,225.46,48.22z M185.712,87.967c0-2.535,0.249-5.013,0.705-7.417h10.543v33.919h-11.248
	V87.967z M162.852,129.469h125.217v26.998H162.852V129.469z M245.056,171.466l-68.427,23.707l1.233-23.707H245.056z
	 M297.562,426.572c-3.543,2.288-5.883,3.8-11.412,3.8s-7.869-1.512-11.412-3.8c-4.276-2.762-9.599-6.2-19.552-6.2
	c-9.951,0-15.273,3.438-19.549,6.2c-3.542,2.288-5.882,3.8-11.41,3.8c-5.528,0-7.868-1.512-11.41-3.8
	c-4.276-2.762-9.598-6.2-19.549-6.2c-9.952,0-15.274,3.438-19.551,6.2c-3.542,2.289-5.883,3.8-11.413,3.8
	c-5.529,0-7.869-1.512-11.412-3.8c-3.172-2.049-6.925-4.467-12.712-5.581l3.665-21.996h164.785l3.67,21.99
	C304.498,422.096,300.739,424.519,297.562,426.572z"/>
<g>
</g>
<g>
</g>
<g>
</g>
<g>
</g>
<g>
</g>
<g>
</g>
<g>
</g>
<g>
</g>
<g>
</g>
<g>
</g>
<g>
</g>
<g>
</g>
<g>
</g>
<g>
</g>
<g>
</g>
</svg>
